<svg xmlns="http://www.w3.org/2000/svg" viewBox="0 0 777.78 500"><polygon points="250 416.67 777.78 416.67 777.78 472.22 250 472.22 250 500 166.67 500 166.67 472.22 0 472.22 0 416.67 166.67 416.67 166.67 388.89 250 388.89 250 416.67"/><polygon points="444.44 194.44 444.44 222.22 611.11 222.22 611.11 277.78 444.44 277.78 444.44 305.56 361.11 305.56 361.11 277.78 166.67 277.78 166.67 222.22 361.11 222.22 361.11 194.44 444.44 194.44"/><polygon points="777.78 27.78 777.78 83.33 611.11 83.33 611.11 111.11 527.78 111.11 527.78 83.33 0 83.33 0 27.78 527.78 27.78 527.78 0 611.11 0 611.11 27.78 777.78 27.78"/></svg>